<svg width="20" height="20" viewBox="0 0 20 20" fill="none" xmlns="http://www.w3.org/2000/svg">
<g clip-path="url(#clip0_759_12472)">
<rect width="20" height="20" rx="10" fill="white"/>
<path fillRule="evenodd" clip-rule="evenodd" d="M0 0H12V9.33333H0V0Z" fill="#1A47B8"/>
<path fillRule="evenodd" clip-rule="evenodd" d="M12 0V1.33333H28V0H12ZM12 2.66667V4H28V2.66667H12ZM12 5.33333V6.66667H28V5.33333H12ZM12 8V9.33333H28V8H12ZM0 10.6667V12H28V10.6667H0ZM0 13.3333V14.6667H28V13.3333H0ZM0 16V17.3333H28V16H0ZM0 18.6667V20H28V18.6667H0Z" fill="#F93939"/>
<path fillRule="evenodd" clip-rule="evenodd" d="M1.33301 1.33398V2.66732H2.66634V1.33398H1.33301ZM3.99967 1.33398V2.66732H5.33301V1.33398H3.99967ZM6.66634 1.33398V2.66732H7.99967V1.33398H6.66634ZM9.33301 1.33398V2.66732H10.6663V1.33398H9.33301ZM7.99967 2.66732V4.00065H9.33301V2.66732H7.99967ZM5.33301 2.66732V4.00065H6.66634V2.66732H5.33301ZM2.66634 2.66732V4.00065H3.99967V2.66732H2.66634ZM1.33301 4.00065V5.33398H2.66634V4.00065H1.33301ZM3.99967 4.00065V5.33398H5.33301V4.00065H3.99967ZM6.66634 4.00065V5.33398H7.99967V4.00065H6.66634ZM9.33301 4.00065V5.33398H10.6663V4.00065H9.33301ZM1.33301 6.66732V8.00065H2.66634V6.66732H1.33301ZM3.99967 6.66732V8.00065H5.33301V6.66732H3.99967ZM6.66634 6.66732V8.00065H7.99967V6.66732H6.66634ZM9.33301 6.66732V8.00065H10.6663V6.66732H9.33301ZM7.99967 5.33398V6.66732H9.33301V5.33398H7.99967ZM5.33301 5.33398V6.66732H6.66634V5.33398H5.33301ZM2.66634 5.33398V6.66732H3.99967V5.33398H2.66634Z" fill="white"/>
</g>
<defs>
<clipPath id="clip0_759_12472">
<rect width="20" height="20" rx="10" fill="white"/>
</clipPath>
</defs>
</svg>
