<svg width="18" height="18" viewBox="0 0 18 18" fill="none" xmlns="http://www.w3.org/2000/svg">
<path d="M16.879 13.0255L16.794 13.1105L16.1321 12.4486H16.1319C15.8272 12.1438 15.6236 11.7525 15.5489 11.328C15.4207 10.5406 15.0759 9.8046 14.5529 9.2023C15.0721 8.59753 15.4164 7.86262 15.5489 7.07663C15.6241 6.65055 15.8274 6.25742 16.1319 5.95007L16.7909 5.29406L16.8759 5.37909C16.9941 5.49906 17.1872 5.50041 17.3072 5.3822C17.4271 5.26398 17.4285 5.07094 17.3101 4.95095L17.0065 4.64727L13.7542 1.3919L13.4506 1.08825C13.3321 0.970582 13.1408 0.970582 13.0224 1.08825C12.965 1.14533 12.9326 1.22285 12.9326 1.30392C12.9326 1.38485 12.965 1.46242 13.0224 1.5195L13.1074 1.60449L12.4455 2.26956C12.1396 2.57296 11.7488 2.77634 11.3249 2.85266C10.5381 2.98226 9.80235 3.32698 9.19921 3.84863C8.59566 3.3275 7.86023 2.9828 7.07353 2.85266C6.64746 2.77742 6.25432 2.57405 5.94698 2.26956L5.29098 1.61059L5.37598 1.5256C5.43346 1.46853 5.46586 1.39097 5.46586 1.3099C5.46586 1.22897 5.43346 1.15143 5.37598 1.09436C5.25763 0.976551 5.06635 0.976551 4.94786 1.09436L4.64419 1.39804L1.08832 4.95111C0.969972 5.07013 0.970653 5.26253 1.08981 5.38089C1.20884 5.4991 1.40121 5.4984 1.51943 5.37924L1.60755 5.29425L2.26951 5.9562C2.57182 6.26245 2.77408 6.65317 2.8496 7.07681C2.98083 7.86308 3.32544 8.59841 3.8456 9.20248C3.32558 9.80669 2.9811 10.5419 2.8496 11.3282C2.77436 11.7542 2.57101 12.1474 2.26652 12.4547L1.60755 13.1107L1.52255 13.0257C1.46547 12.9682 1.38793 12.9358 1.30686 12.9358C1.22593 12.9358 1.14839 12.9682 1.09131 13.0257C0.973508 13.144 0.973508 13.3353 1.09131 13.4538L1.39498 13.7575L4.94808 17.3134C5.06656 17.4312 5.25784 17.4312 5.3762 17.3134C5.43367 17.2564 5.46608 17.1787 5.46608 17.0978C5.46608 17.0169 5.43367 16.9392 5.3762 16.8823L5.2912 16.7942L5.95316 16.1322C6.25832 15.8283 6.64955 15.6257 7.07375 15.5521C7.8595 15.4191 8.59424 15.0748 9.19943 14.5561C9.8042 15.0753 10.5391 15.4197 11.3251 15.5521C11.7519 15.6254 12.1454 15.829 12.4517 16.1352L13.1077 16.7942L13.0227 16.8791C12.9652 16.9362 12.9328 17.0138 12.9328 17.0948C12.9328 17.1758 12.9652 17.2533 13.0227 17.3104C13.141 17.4282 13.3323 17.4282 13.4508 17.3104L17.3103 13.454C17.4281 13.3355 17.4281 13.1442 17.3103 13.0258C17.2534 12.9684 17.1757 12.936 17.0948 12.936C17.0138 12.936 16.9362 12.9684 16.8792 13.0258L16.879 13.0255ZM11.413 3.45077V3.45065C11.9635 3.35711 12.4709 3.09383 12.8645 2.69757L13.5356 2.03561L16.3658 4.86584L15.7038 5.5278C15.3076 5.92135 15.0443 6.42878 14.9508 6.97931C14.814 7.79133 14.4176 8.53724 13.8211 9.10498C13.7729 8.9911 13.7027 8.88795 13.6146 8.80133C13.5198 8.70426 13.4047 8.62955 13.2775 8.58264C13.3943 8.39678 13.445 8.17703 13.4213 7.95877C13.3976 7.74051 13.3009 7.5366 13.1469 7.38015C13.0511 7.2839 12.9362 7.20839 12.8099 7.1585C12.9215 6.97264 12.9677 6.75493 12.9413 6.53979C12.915 6.32465 12.8173 6.12439 12.664 5.97107C12.5087 5.82031 12.3083 5.72463 12.0934 5.69833C11.8784 5.67189 11.6608 5.71662 11.4738 5.82534C11.4269 5.69818 11.3522 5.58296 11.2551 5.48834C11.0728 5.3056 10.8254 5.20297 10.5673 5.20297C10.3093 5.20297 10.0617 5.30559 9.87954 5.48834L8.66487 6.703C8.60983 6.53246 8.51507 6.37737 8.38845 6.25048C8.25844 6.124 8.09861 6.03207 7.92386 5.98327L9.39962 4.51046C9.9465 3.95463 10.6537 3.58402 11.4221 3.45062L11.413 3.45077ZM2.69476 5.5278L2.0328 4.86584L4.86303 2.03561L5.52499 2.69757C5.91854 3.09383 6.42597 3.35712 6.97649 3.45065C7.63304 3.56046 8.2485 3.84349 8.75904 4.27053L4.26787 8.75894C3.84218 8.24867 3.55927 7.63456 3.44797 6.97937C3.35443 6.42884 3.09117 5.92141 2.6949 5.52786L2.69476 5.5278ZM6.97666 14.9415C6.42614 15.0351 5.91872 15.2985 5.52516 15.6946L4.8632 16.3688L2.03298 13.5385L2.69494 12.8766C3.0912 12.483 3.35447 11.9756 3.448 11.4251C3.57882 10.6513 3.94838 9.9378 4.50487 9.3844L7.2105 6.67562C7.30879 6.58208 7.4392 6.5299 7.57491 6.5299C7.71061 6.5299 7.84103 6.58208 7.93931 6.67562C8.03651 6.77201 8.09114 6.90325 8.09114 7.04004C8.09114 7.17696 8.03651 7.30806 7.93931 7.40445L7.27124 8.0755V8.07562C7.16807 8.196 7.17499 8.37563 7.2871 8.48788C7.39935 8.6 7.57898 8.60692 7.69936 8.50375L10.2928 5.91037C10.4362 5.76721 10.6685 5.76721 10.812 5.91037C10.8807 5.97883 10.9192 6.07169 10.9192 6.16848C10.9192 6.26541 10.8807 6.35828 10.812 6.4266L8.21872 9.01999C8.16124 9.07706 8.12884 9.1546 8.12884 9.23553C8.12884 9.3166 8.16124 9.39416 8.21872 9.45123C8.33707 9.5689 8.52849 9.5689 8.64684 9.45123L11.7048 6.39328C11.8492 6.25527 12.0767 6.25527 12.221 6.39328C12.2896 6.4616 12.3283 6.55446 12.3283 6.65139C12.3283 6.74832 12.2896 6.84119 12.221 6.90951L9.16308 9.96746C9.05991 10.088 9.06683 10.2675 9.17907 10.3797C9.29119 10.4918 9.47081 10.4987 9.59133 10.3956L12.1877 7.80218V7.8023C12.3321 7.66416 12.5595 7.66416 12.7039 7.8023C12.7725 7.87063 12.811 7.96349 12.811 8.06042C12.811 8.15722 12.7725 8.25008 12.7039 8.31854L10.1105 10.9118C10.053 10.9689 10.0206 11.0464 10.0206 11.1275C10.0206 11.2084 10.053 11.286 10.1105 11.343C10.229 11.4609 10.4203 11.4609 10.5386 11.343L12.6643 9.21737C12.8069 9.07476 13.0381 9.07476 13.1806 9.21737C13.3232 9.35999 13.3232 9.59101 13.1806 9.73361C8.89588 14.003 8.5589 14.6683 6.9767 14.9536L6.97666 14.9415ZM12.8741 15.7068C12.4805 15.3106 11.9731 15.0473 11.4226 14.9537C10.7666 14.8419 10.1518 14.5591 9.64003 14.1338L14.1312 9.64267C14.5601 10.1521 14.8433 10.768 14.9511 11.4252C15.0452 11.9755 15.3085 12.4829 15.7042 12.8767L16.3661 13.5387L13.5359 16.3689L12.8741 15.7068Z" fill="#6C6C6C" stroke="#6C6C6C" stroke-width="0.2"/>
</svg>
