<svg width="17" height="13" viewBox="0 0 17 13" fill="none" xmlns="http://www.w3.org/2000/svg">
<path d="M14.6106 6.25861H14.0778C14.0263 3.35441 11.6547 1 8.73327 1C5.81183 1 3.44026 3.35441 3.3887 6.25861H2.85599C1.82482 6.25861 1 7.08361 1 8.11462V9.1629C1 10.1768 1.82486 11.0189 2.85599 11.0189H3.81833C4.05891 11.0189 4.24796 10.8299 4.24796 10.5893V6.34454C4.24796 3.86986 6.25862 1.85925 8.73327 1.85925C11.2079 1.85925 13.2186 3.86989 13.2186 6.34454V10.8299C13.2186 11.397 12.7546 11.8438 12.2047 11.8438H10.7783V11.4657C10.7783 10.7784 10.2283 10.2283 9.541 10.2283C8.85366 10.2283 8.30367 10.7784 8.30367 11.4657V12.2734C8.30367 12.514 8.49272 12.703 8.7333 12.703H12.2047C13.1843 12.703 13.9748 11.9468 14.0607 10.9845H14.6107C15.6246 10.9845 16.4667 10.1596 16.4667 9.12848V8.0802C16.4665 7.08356 15.6417 6.25861 14.6106 6.25861ZM1.8592 9.16296V8.11462C1.8592 7.56464 2.30598 7.11792 2.85593 7.11792H3.38864V10.1425H2.85593C2.30595 10.1426 1.8592 9.69567 1.8592 9.16296ZM9.16287 11.8611V11.483C9.16287 11.2768 9.33477 11.1049 9.54094 11.1049C9.74712 11.1049 9.91902 11.2768 9.91902 11.483V11.8611H9.16287ZM15.6073 9.16296C15.6073 9.71295 15.1605 10.1597 14.6106 10.1597H14.0778V7.11786H14.6106C15.1605 7.11786 15.6073 7.56467 15.6073 8.11462V9.16296Z" fill="#6C6C6C" stroke="#6C6C6C" stroke-width="0.2"/>
</svg>
