<svg width="24" height="24" viewBox="0 0 24 24" fill="none" xmlns="http://www.w3.org/2000/svg">
<path d="M11 8C11 10.21 9.21 12 7 12C4.79 12 3 10.21 3 8C3 5.79 4.79 4 7 4C9.21 4 11 5.79 11 8ZM11 14.72V20H0V18C0 15.79 3.13 14 7 14C8.5 14 9.87 14.27 11 14.72ZM24 20H13V3H24V20ZM16 11.5C16 10.837 16.2634 10.2011 16.7322 9.73223C17.2011 9.26339 17.837 9 18.5 9C19.163 9 19.7989 9.26339 20.2678 9.73223C20.7366 10.2011 21 10.837 21 11.5C21 12.163 20.7366 12.7989 20.2678 13.2678C19.7989 13.7366 19.163 14 18.5 14C17.837 14 17.2011 13.7366 16.7322 13.2678C16.2634 12.7989 16 12.163 16 11.5ZM22 7C21.4696 7 20.9609 6.78929 20.5858 6.41421C20.2107 6.03914 20 5.53043 20 5H17C17 6.11 16.11 7 15 7V16C15.5304 16 16.0391 16.2107 16.4142 16.5858C16.7893 16.9609 17 17.4696 17 18H20C20 16.9 20.9 16 22 16V7Z" fill="black"/>
</svg>
