<svg width="15" height="15" viewBox="0 0 15 15" fill="none" xmlns="http://www.w3.org/2000/svg">
<path d="M12.5084 2.36746C12.7298 2.36746 12.9414 2.45543 13.098 2.61157C13.2542 2.76838 13.3422 2.9798 13.3422 3.20129V4.09967H1.00079V3.20129C1.00079 2.9798 1.08879 2.76825 1.24492 2.61157C1.40173 2.45543 1.61314 2.36746 1.83461 2.36746H4.09967V2.50171C4.09967 2.77787 4.32381 3.00201 4.6 3.00201C4.8762 3.00201 5.10034 2.77787 5.10034 2.50171V2.36746H10.9324V2.50171C10.9324 2.77787 11.1566 3.00201 11.4328 3.00201C11.709 3.00201 11.9331 2.77787 11.9331 2.50171V2.36746H12.5084ZM10.0662 8.19934C9.79004 8.19934 9.56589 8.42348 9.56589 8.69965V10.3674C9.56589 10.6436 9.79004 10.8678 10.0662 10.8678H11.734C12.0102 10.8678 12.2343 10.6436 12.2343 10.3674C12.2343 10.0912 12.0102 9.86707 11.734 9.86707H10.5666V8.69965C10.5666 8.42348 10.3424 8.19934 10.0662 8.19934ZM10.6688 7.83347C12.2338 7.83347 13.5041 9.10361 13.5041 10.6688C13.5041 12.2337 12.2339 13.504 10.6688 13.504C9.10379 13.504 7.83351 12.2339 7.83351 10.6688C7.83351 9.10374 9.10368 7.83347 10.6688 7.83347ZM4.6 0C4.32381 0 4.09967 0.224172 4.09967 0.500336V1.36655H1.83461C1.34822 1.36655 0.881278 1.55998 0.537077 1.90363C0.19353 2.24785 0 2.71487 0 3.20114V12.2072C0 12.6936 0.193434 13.1606 0.537077 13.5048C0.881278 13.8483 1.34834 14.0418 1.83461 14.0418H6.50432C6.78051 14.0418 7.00466 13.8177 7.00466 13.5415C7.00466 13.2653 6.78051 13.0412 6.50432 13.0412H1.83461C1.61314 13.0412 1.4016 12.9531 1.24492 12.797C1.08879 12.6402 1.00079 12.4288 1.00079 12.2073V5.10034H13.3422V6.53693C13.3422 6.81313 13.5663 7.03729 13.8425 7.03729C14.1187 7.03729 14.3429 6.81313 14.3429 6.53693L14.343 6.53683V4.61078C14.343 4.60719 14.3431 4.6036 14.3431 4.59998C14.3431 4.59635 14.343 4.59279 14.343 4.5892V3.20114C14.343 2.71475 14.1495 2.24785 13.8059 1.90363C13.4617 1.56011 12.9946 1.36655 12.5084 1.36655H11.9331V0.500336C11.9331 0.224172 11.709 0 11.4328 0C11.1566 0 10.9324 0.224172 10.9324 0.500336V1.36655H5.10034V0.500336C5.10034 0.224172 4.8762 0 4.6 0ZM10.6688 6.83279C8.55139 6.83279 6.83278 8.55123 6.83278 10.6688C6.83278 12.7862 8.55122 14.5048 10.6688 14.5048C12.7862 14.5048 14.5048 12.7864 14.5048 10.6688C14.5048 8.5514 12.7864 6.83279 10.6688 6.83279Z" fill="#6C6C6C"/>
</svg>
