<svg width="16" height="15" viewBox="0 0 16 15" fill="none" xmlns="http://www.w3.org/2000/svg">
<path d="M12.7454 1.03409C13.3001 2.18153 13.8571 3.32891 14.4118 4.47635H2.3411C2.03368 4.47635 1.72534 4.47179 1.41705 4.4697C1.96827 3.42587 2.51832 2.38325 3.07044 1.33841C3.12306 1.237 3.17666 1.13555 3.23017 1.03409H12.7454ZM9.14061 5.51376V8.1218C8.88179 7.86583 8.62257 7.60986 8.36259 7.35312C8.26275 7.25327 8.13036 7.20401 7.99783 7.20401C7.86414 7.20401 7.73028 7.25417 7.62955 7.35312C7.35994 7.61608 7.09036 7.87826 6.8204 8.14038V5.51376H9.14061ZM13.5105 5.51376C13.907 5.51376 14.3097 5.52914 14.7103 5.52914C14.7449 5.52914 14.7795 5.52902 14.8141 5.52878V13.7646H2.3411C1.94454 13.7646 1.54186 13.7493 1.14128 13.7493C1.10666 13.7493 1.07206 13.7494 1.03747 13.7496V5.51376H5.78293V9.3656C5.78293 9.67382 6.04383 9.8764 6.31189 9.8764C6.43785 9.8764 6.5654 9.83167 6.66819 9.73212C7.1089 9.30228 7.54952 8.87456 7.99181 8.44568C8.4245 8.87462 8.85761 9.30228 9.29284 9.73212C9.39417 9.83233 9.52073 9.87711 9.64618 9.87711C9.91467 9.87711 10.1781 9.67197 10.1781 9.3656V5.51376H13.5105ZM2.91144 0C2.73512 0 2.54829 0.096848 2.46194 0.255951C1.76674 1.5909 1.06121 2.92231 0.359264 4.25708C0.29759 4.37594 0.234541 4.49494 0.171865 4.61386C0.0670971 4.70965 1.12107e-05 4.84651 1.12107e-05 4.99503V5.07687C-3.73692e-06 5.07861 -3.73692e-06 5.08036 1.12107e-05 5.08209V14.2834C1.12107e-05 14.5634 0.23856 14.8021 0.518739 14.8021H13.5105C13.9093 14.8021 14.3096 14.8098 14.7094 14.8098C14.9059 14.8098 15.1022 14.8079 15.2982 14.8024C15.3027 14.8025 15.3073 14.8027 15.3118 14.8027C15.3188 14.8027 15.3258 14.8025 15.3328 14.8021C15.6025 14.8021 15.8653 14.5636 15.8515 14.2834V4.99503C15.8515 4.80956 15.7468 4.64219 15.5947 4.55029C14.9941 3.3079 14.3908 2.06554 13.7905 0.823029C13.7007 0.632835 13.6072 0.446145 13.5174 0.255951C13.4379 0.096848 13.2407 0 13.0679 0H2.91144Z" fill="#797979"/>
</svg>
