<svg width="17" height="15" viewBox="0 0 17 15" fill="none" xmlns="http://www.w3.org/2000/svg">
<path d="M10.3752 9.60638V10.8119H13.4442C15.499 10.8119 16.7554 9.69078 16.7554 8.15979C16.7554 6.88193 15.9636 5.85122 14.6613 5.37506C14.6679 2.65056 12.5346 0.685547 9.79276 0.685547C8.05208 0.685547 6.74332 1.5113 5.92529 2.60229C4.36133 2.24667 2.51597 3.33768 2.45053 5.03748C0.951993 5.2725 0.0292969 6.41782 0.0292969 7.87646C0.0292969 9.49792 1.3708 10.8119 3.5499 10.8119H6.38342V9.60638H3.5499C2.12334 9.60638 1.35117 8.82277 1.35117 7.85236C1.35117 6.72516 2.15605 5.93555 3.491 5.93555C3.58916 5.93555 3.62843 5.88733 3.62189 5.80298C3.58263 4.00674 4.97646 3.42812 6.38342 3.80786C6.46845 3.82595 6.52078 3.81386 6.56009 3.74756C7.18826 2.69273 8.16331 1.88501 9.78619 1.88501C11.8409 1.88501 13.3068 3.38591 13.4049 5.13995C13.4246 5.4594 13.3984 5.81504 13.3722 6.10431C13.3591 6.18873 13.3984 6.23695 13.4835 6.24902C14.681 6.45998 15.4335 7.0989 15.4335 8.10553C15.4335 8.98556 14.766 9.60638 13.418 9.60638H10.3752ZM8.37924 14.5008C8.54282 14.5008 8.68027 14.4465 8.84384 14.3079L11.0426 12.4032C11.1604 12.3068 11.2193 12.1922 11.2193 12.0476C11.2193 11.7643 10.9706 11.5593 10.6696 11.5593C10.5191 11.5593 10.3686 11.6196 10.2574 11.7281L9.34775 12.572L8.92892 13.018L8.99438 12.1259V6.95422C8.99438 6.65885 8.71957 6.39972 8.37924 6.39972C8.04554 6.39972 7.7641 6.65885 7.7641 6.95422V12.1259L7.83609 13.018L7.41074 12.572L6.50119 11.7281C6.38988 11.6196 6.23941 11.5593 6.08887 11.5593C5.78792 11.5593 5.54581 11.7643 5.54581 12.0476C5.54581 12.1922 5.59816 12.3068 5.71594 12.4032L7.91464 14.3079C8.07822 14.4465 8.22222 14.5008 8.37924 14.5008Z" fill="#8E8E93"/>
</svg>
