<svg width="15" height="14" viewBox="0 0 15 14" fill="none" xmlns="http://www.w3.org/2000/svg">
<path d="M7.0116 13.0517C10.8565 13.0517 14.03 10.1285 14.03 6.5932C14.03 3.05792 10.8497 0.134766 7.00481 0.134766C3.16675 0.134766 0 3.05792 0 6.5932C0 10.1285 3.17353 13.0517 7.0116 13.0517ZM7.0116 11.765C3.8991 11.765 1.41046 9.46017 1.41046 6.5932C1.41046 3.72625 3.8991 1.42773 7.00481 1.42773C10.1173 1.42773 12.6196 3.72625 12.6264 6.5932C12.6331 9.46017 10.1241 11.765 7.0116 11.765ZM3.59395 7.38019H7.00481C7.31674 7.38019 7.55406 7.16162 7.55406 6.88055V2.79559C7.55406 2.51452 7.31674 2.2959 7.00481 2.2959C6.70646 2.2959 6.46913 2.51452 6.46913 2.79559V6.38086H3.59395C3.28881 6.38086 3.05147 6.59949 3.05147 6.88055C3.05147 7.16162 3.28881 7.38019 3.59395 7.38019Z" fill="#8E8E93"/>
</svg>
