<svg width="16" height="14" viewBox="0 0 16 14" fill="none" xmlns="http://www.w3.org/2000/svg">
<path d="M5.28369 6.60474C3.43449 6.60474 1.98138 5.1518 1.98138 3.30243C1.98138 1.45323 3.43432 0.00012207 5.28369 0.00012207C7.13289 0.00012207 8.58599 1.45306 8.58599 3.30243C8.58588 5.15174 7.13294 6.60474 5.28369 6.60474ZM5.28369 1.32111C4.1609 1.32111 3.30236 2.17975 3.30236 3.30243C3.30236 4.42522 4.1609 5.28375 5.28369 5.28375C6.40648 5.28375 7.26501 4.42522 7.26501 3.30243C7.26501 2.17975 6.40636 1.32111 5.28369 1.32111ZM9.97264 13.2091H0.660404C0.264139 13.2091 0 12.9449 0 12.5486C0 9.6426 2.37759 7.26501 5.28363 7.26501H5.34964C8.25568 7.26501 10.6333 9.57661 10.6333 12.4165V12.5486C10.6333 12.9449 10.303 13.209 9.97275 13.209L9.97264 13.2091ZM1.45294 11.8882H9.24634C8.91608 9.97292 7.26501 8.58594 5.34964 8.58594C3.36831 8.58594 1.7173 9.97287 1.45294 11.8882ZM13.8693 3.30231C13.8693 1.45311 12.4164 0 10.567 0C10.0386 0 9.44425 0.132135 8.98198 0.46228C8.65172 0.660413 8.58571 1.05667 8.71784 1.38693C8.91597 1.71719 9.31224 1.78322 9.64249 1.65109C10.5672 1.1227 11.822 1.45294 12.3503 2.37759C12.8787 3.30225 12.5485 4.55706 11.6238 5.08545C11.0294 5.41571 10.3029 5.41571 9.64249 5.08545C9.31224 4.88732 8.91597 5.01943 8.71784 5.34958C8.5197 5.67984 8.65183 6.07613 8.98198 6.27426C9.44425 6.5384 10.0386 6.6705 10.567 6.6705C12.4164 6.6045 13.8693 5.15156 13.8693 3.30225V3.30231ZM15.8507 12.5486C15.9167 9.70881 13.6052 7.33122 10.7652 7.26498H10.633C10.4349 7.26498 10.2368 7.26496 10.0386 7.33096C9.64238 7.39697 9.37824 7.72724 9.44425 8.0575C9.51025 8.45376 9.84051 8.71789 10.1708 8.65189H10.633C12.5484 8.65189 14.2654 10.0388 14.5297 11.888H11.888C11.4918 11.888 11.2276 12.1521 11.2276 12.5484C11.2276 12.9446 11.4918 13.2088 11.888 13.2088H15.1903C15.5866 13.2089 15.8507 12.9448 15.8507 12.5485L15.8507 12.5486Z" fill="#797979"/>
</svg>
