<svg width="15" height="15" viewBox="0 0 15 15" fill="none" xmlns="http://www.w3.org/2000/svg">
<path fill-rule="evenodd" clip-rule="evenodd" d="M10.7097 7.72301C10.729 7.56835 10.7435 7.41368 10.7435 7.24935C10.7435 7.08502 10.729 6.93035 10.7097 6.77568L11.7295 5.97818C11.8214 5.90568 11.8455 5.77518 11.7875 5.66885L10.8209 3.99652C10.7629 3.89018 10.6324 3.85152 10.526 3.89018L9.32253 4.37352C9.07119 4.18018 8.80053 4.02068 8.50569 3.89985L8.32203 2.61902C8.30753 2.50302 8.20603 2.41602 8.08519 2.41602H6.15186C6.03103 2.41602 5.92953 2.50302 5.91503 2.61902L5.73136 3.89985C5.43653 4.02068 5.16586 4.18502 4.91453 4.37352L3.71103 3.89018C3.59986 3.84668 3.47419 3.89018 3.41619 3.99652L2.44953 5.66885C2.38669 5.77518 2.41569 5.90568 2.50753 5.97818L3.52736 6.77568C3.50803 6.93035 3.49353 7.08985 3.49353 7.24935C3.49353 7.40885 3.50803 7.56835 3.52736 7.72301L2.50753 8.52051C2.41569 8.59302 2.39153 8.72352 2.44953 8.82985L3.41619 10.5022C3.47419 10.6085 3.60469 10.6472 3.71103 10.6085L4.91453 10.1252C5.16586 10.3185 5.43653 10.478 5.73136 10.5988L5.91503 11.8797C5.92953 11.9957 6.03103 12.0827 6.15186 12.0827H8.08519C8.20603 12.0827 8.30753 11.9957 8.32203 11.8797L8.50569 10.5988C8.80053 10.478 9.07119 10.3137 9.32253 10.1252L10.526 10.6085C10.6372 10.652 10.7629 10.6085 10.8209 10.5022L11.7875 8.82985C11.8455 8.72352 11.8214 8.59302 11.7295 8.52051L10.7097 7.72301ZM7.11853 8.94102C6.18569 8.94102 5.42686 8.18218 5.42686 7.24935C5.42686 6.31652 6.18569 5.55768 7.11853 5.55768C8.05136 5.55768 8.81019 6.31652 8.81019 7.24935C8.81019 8.18218 8.05136 8.94102 7.11853 8.94102Z" fill="#797979"/>
</svg>
