<svg width="16" height="16" viewBox="0 0 16 16" fill="none" xmlns="http://www.w3.org/2000/svg">
<path d="M1.92514 1H14.8206C15.3309 1 15.7451 1.41449 15.7451 1.92514V14.8206C15.7451 15.3315 15.3307 15.7451 14.8206 15.7451H1.92514C1.41421 15.7451 1 15.3312 1 14.8206V1.92514C1 1.41421 1.41449 1 1.92514 1ZM4.78438 3.85931H11.9603C12.4713 3.85931 12.8849 4.27377 12.8849 4.78387V11.9598C12.8849 12.4708 12.471 12.8845 11.9603 12.8845H4.78438C4.27399 12.8845 3.85979 12.4705 3.85979 11.9598V4.78387C3.85979 4.27348 4.27428 3.85931 4.78438 3.85931ZM11.0353 5.70905H5.70952V11.0348H11.0353V5.70905ZM13.8948 2.84897H2.84925V13.8945H13.8948V2.84897Z" fill="#797979" stroke="white" stroke-width="0.5"/>
</svg>
