<svg width="16" height="16" viewBox="0 0 16 16" fill="none" xmlns="http://www.w3.org/2000/svg">
<path d="M8.375 2.75156C9.48125 2.75156 10.3109 3.58125 10.3109 4.6875C10.3109 5.79375 9.48125 6.62344 8.375 6.62344C7.26875 6.62344 6.43906 5.79375 6.43906 4.6875C6.43906 3.58125 7.26875 2.75156 8.375 2.75156ZM8.375 11.0484C11.1406 11.0484 13.9984 12.4312 13.9984 12.9844V13.9984H2.75156V12.9844C2.75156 12.4312 5.60938 11.0484 8.375 11.0484ZM8.375 1C6.34688 1 4.6875 2.65937 4.6875 4.6875C4.6875 6.71562 6.34688 8.375 8.375 8.375C10.4031 8.375 12.0625 6.71562 12.0625 4.6875C12.0625 2.65937 10.4031 1 8.375 1ZM8.375 9.29688C5.88594 9.29688 1 10.4953 1 12.9844V15.75H15.75V12.9844C15.75 10.4953 10.8641 9.29688 8.375 9.29688Z" fill="#6C6C6C" stroke="white" stroke-width="0.5"/>
</svg>
