<?xml version="1.0" standalone="no"?>
<!DOCTYPE svg PUBLIC "-//W3C//DTD SVG 20010904//EN"
 "http://www.w3.org/TR/2001/REC-SVG-20010904/DTD/svg10.dtd">
<svg version="1.0" xmlns="http://www.w3.org/2000/svg"
 width="350.000000pt" height="366.000000pt" viewBox="0 0 350.000000 366.000000"
 preserveAspectRatio="xMidYMid meet">

<g transform="translate(0.000000,366.000000) scale(0.100000,-0.100000)"
fill="#000000" stroke="none">
<path d="M1668 3479 c-9 -5 -31 -7 -48 -4 -25 4 -30 2 -30 -15 0 -11 -4 -20
-10 -20 -5 0 -10 4 -10 9 0 5 -29 12 -64 16 -52 5 -71 3 -103 -13 -21 -10 -58
-25 -83 -32 -58 -18 -200 -144 -228 -203 -105 -217 -103 -211 -107 -512 -3
-231 -5 -260 -21 -272 -14 -10 -15 -15 -4 -28 11 -14 11 -16 -1 -13 -17 4 -25
-103 -11 -154 l9 -33 12 28 c6 16 11 38 11 50 0 12 5 29 10 37 8 12 10 9 10
-12 0 -15 5 -30 10 -33 6 -4 10 34 10 107 0 62 5 142 11 178 6 36 16 107 22
159 10 79 15 95 32 101 22 8 35 4 35 -10 0 -5 -6 -7 -14 -4 -12 5 -14 -5 -13
-50 1 -31 -2 -56 -7 -56 -5 0 -7 -3 -4 -6 4 -3 15 -1 25 5 15 8 20 7 20 -4 0
-8 -9 -17 -19 -21 -10 -3 -18 -11 -18 -18 0 -7 -9 -21 -20 -31 -16 -15 -20
-29 -18 -72 2 -55 8 -63 28 -39 6 8 18 12 26 9 8 -3 14 0 14 6 0 6 7 11 15 11
12 0 11 -4 -5 -20 -11 -11 -22 -32 -25 -47 -3 -16 -9 -45 -14 -66 -6 -27 -5
-37 3 -34 6 2 11 10 11 17 0 7 10 16 23 21 13 5 22 5 22 -1 0 -6 -7 -10 -16
-10 -8 0 -13 -4 -10 -9 4 -5 17 -8 31 -6 14 1 25 -2 25 -7 0 -5 7 -5 18 0 22
11 127 8 127 -4 0 -5 -3 -8 -7 -7 -5 2 -8 -4 -8 -12 0 -8 9 -15 20 -15 19 0
20 -5 16 -45 -3 -25 -10 -55 -16 -65 -8 -16 -8 -20 4 -20 22 0 43 26 51 60 4
16 10 30 14 30 24 0 66 156 56 207 -10 55 -42 124 -57 122 -34 -4 -60 3 -78
21 -11 11 -33 22 -48 24 -15 2 -35 7 -45 11 -10 4 -31 8 -48 9 -30 1 -49 19
-49 46 0 13 1 13 10 0 8 -13 10 -12 10 3 0 9 5 17 10 17 6 0 10 -4 10 -10 0
-5 16 6 36 25 20 19 40 35 46 35 6 0 6 6 -2 15 -6 8 -9 19 -6 24 7 11 -33 43
-46 35 -4 -3 -6 -10 -2 -15 3 -5 9 -7 14 -4 5 3 11 1 15 -5 3 -5 -1 -10 -9
-10 -8 0 -17 -8 -19 -17 -4 -14 -5 -12 -6 5 -1 29 -14 28 -31 -3 -10 -18 -16
-22 -22 -13 -12 20 -9 41 5 35 8 -3 14 3 14 15 2 17 -2 19 -28 14 l-31 -6 28
33 c15 17 31 31 36 29 4 -1 8 4 8 11 0 7 10 19 22 27 12 8 32 25 45 38 13 12
28 22 33 22 6 0 10 4 10 9 0 5 13 12 30 16 16 4 32 10 35 15 3 5 19 5 35 0 34
-10 67 -2 129 29 45 23 114 36 132 25 6 -3 29 -8 52 -10 68 -6 90 -11 122 -28
17 -9 35 -16 40 -16 6 0 19 -11 29 -25 10 -14 34 -35 52 -46 19 -11 34 -25 34
-31 0 -6 11 -19 25 -30 14 -11 32 -32 40 -48 20 -39 34 -107 24 -117 -10 -10
0 -53 40 -163 28 -80 40 -137 46 -221 4 -67 29 -80 40 -23 3 20 16 46 29 58
12 11 25 29 29 39 4 9 22 26 40 37 l34 20 8 139 c7 138 -1 216 -28 286 -19 50
-66 114 -105 142 -50 36 -80 71 -98 113 -15 35 -66 75 -192 148 -31 18 -66 44
-77 57 -12 14 -28 25 -36 25 -8 0 -19 4 -24 9 -21 21 -80 39 -97 30z m-208
-369 c-8 -6 -22 -10 -30 -9 -9 0 -5 6 10 14 27 14 44 10 20 -5z m-190 -560
c12 -8 12 -10 -5 -9 -11 0 -29 4 -40 9 -18 8 -18 9 5 9 14 0 32 -4 40 -9z
m-83 -6 c-3 -3 -12 -4 -19 -1 -8 3 -5 6 6 6 11 1 17 -2 13 -5z m128 -74 c3 -5
1 -10 -4 -10 -6 0 -11 5 -11 10 0 6 2 10 4 10 3 0 8 -4 11 -10z m-110 -10 c3
-5 -3 -10 -14 -10 -12 0 -21 5 -21 10 0 6 6 10 14 10 8 0 18 -4 21 -10z"/>
<path d="M1160 2919 c0 -5 5 -7 10 -4 6 3 10 8 10 11 0 2 -4 4 -10 4 -5 0 -10
-5 -10 -11z"/>
<path d="M1737 2678 c-7 -4 -27 -8 -45 -8 -18 0 -52 -10 -75 -21 -63 -32 -81
-63 -54 -91 7 -7 21 -29 30 -48 32 -63 53 -95 64 -95 6 0 15 -3 19 -7 4 -4 13
-3 21 3 7 7 32 12 56 12 23 0 36 2 30 4 -25 9 -12 32 21 38 22 5 33 12 32 22
0 9 5 18 13 21 10 3 12 0 8 -11 -4 -11 2 -16 25 -19 26 -4 29 -2 25 18 -3 15
0 21 10 17 7 -3 13 -1 13 5 0 17 -87 54 -143 61 -48 6 -50 7 -22 15 54 14 94
16 122 5 57 -22 109 -19 95 6 -4 8 -27 28 -52 47 -40 29 -52 33 -113 33 -38 0
-74 -3 -80 -7z m129 -134 c19 -15 19 -15 -1 -6 -11 5 -27 12 -35 15 -13 5 -13
6 1 6 8 1 24 -6 35 -15z m-128 -53 c3 -8 -1 -12 -9 -9 -7 2 -15 10 -17 17 -3
8 1 12 9 9 7 -2 15 -10 17 -17z"/>
<path d="M2328 2451 c20 -35 26 -34 16 3 -3 14 -12 26 -20 26 -10 0 -9 -6 4
-29z"/>
<path d="M2351 2394 c0 -11 3 -14 6 -6 3 7 2 16 -1 19 -3 4 -6 -2 -5 -13z"/>
<path d="M2362 2340 c0 -19 2 -27 5 -17 2 9 2 25 0 35 -3 9 -5 1 -5 -18z"/>
<path d="M1243 2323 c9 -2 23 -2 30 0 6 3 -1 5 -18 5 -16 0 -22 -2 -12 -5z"/>
<path d="M2226 2315 c-3 -9 3 -19 16 -26 18 -10 20 -9 15 6 -4 9 -7 21 -7 26
0 15 -17 10 -24 -6z"/>
<path d="M2282 2245 c-16 -34 -15 -40 2 -26 16 13 28 51 17 51 -4 0 -13 -11
-19 -25z"/>
<path d="M992 2241 c-29 -17 -39 -151 -12 -151 16 0 17 25 3 47 -8 12 -13 28
-11 34 2 7 14 -7 26 -32 l22 -44 0 65 c0 70 -8 93 -28 81z"/>
<path d="M1290 2138 c-17 -38 -36 -68 -41 -68 -5 0 -9 -7 -9 -15 0 -8 -4 -15
-10 -15 -5 0 -10 -9 -10 -20 0 -11 -5 -29 -12 -40 -10 -16 -9 -23 12 -45 13
-14 25 -31 26 -38 13 -61 15 -89 9 -104 -5 -10 -7 -24 -6 -32 1 -8 -3 -17 -9
-21 -9 -6 -9 -13 -1 -29 7 -12 10 -25 8 -29 -9 -13 19 -30 34 -21 11 7 11 9
-3 9 -10 0 -18 5 -18 10 0 6 4 10 10 10 5 0 7 7 4 15 -4 8 -2 15 3 15 5 0 9 9
10 19 1 14 -3 18 -13 14 -8 -3 -14 0 -14 6 0 6 5 11 11 11 6 0 24 11 41 25 21
18 41 25 72 25 29 0 51 7 67 21 15 13 18 20 9 19 -31 -5 -42 0 -36 16 3 8 2
13 -3 10 -5 -3 -14 0 -20 8 -9 10 -6 17 11 28 13 8 33 18 45 22 25 8 39 36 18
36 -8 0 -15 -7 -15 -15 0 -19 -7 -19 -27 1 -13 13 -18 13 -25 2 -8 -10 -11
-10 -15 0 -7 18 -23 15 -23 -5 0 -15 -2 -16 -10 -3 -8 13 -10 12 -10 -2 0 -21
-16 -24 -23 -5 -4 10 -6 10 -6 0 -1 -18 -21 -16 -21 2 0 8 5 15 10 15 6 0 10
6 10 13 0 9 12 14 32 14 18 0 34 5 36 11 2 7 10 12 18 12 8 0 14 7 14 15 0 8
5 15 10 15 6 0 10 6 10 13 0 7 13 26 30 42 29 28 31 51 3 41 -8 -3 -32 3 -53
14 -34 17 -41 18 -53 5 -16 -15 -28 -7 -39 25 -4 9 -18 -11 -38 -52z m-30
-418 c0 -5 -2 -10 -4 -10 -3 0 -8 5 -11 10 -3 6 -1 10 4 10 6 0 11 -4 11 -10z"/>
<path d="M1736 2165 c14 -19 30 -32 35 -30 7 5 -44 65 -56 65 -3 0 6 -16 21
-35z"/>
<path d="M1564 2175 c-17 -13 -15 -14 31 -14 46 0 48 1 31 14 -11 8 -25 15
-31 15 -6 0 -20 -7 -31 -15z"/>
<path d="M1830 2011 c0 -6 4 -13 10 -16 6 -3 7 1 4 9 -7 18 -14 21 -14 7z"/>
<path d="M1759 1969 c-10 -20 -17 -21 -78 -16 -62 5 -64 5 -31 -8 19 -7 39
-10 43 -8 5 3 11 -4 14 -15 4 -17 9 -19 30 -11 37 14 41 12 61 -28 21 -40 24
-37 37 38 5 26 2 40 -10 52 -23 23 -52 21 -66 -4z"/>
<path d="M1494 1774 c0 -9 -7 -21 -17 -28 -15 -9 -21 -7 -32 7 -9 13 -14 15
-17 5 -4 -11 -8 -10 -21 1 -15 12 -17 11 -17 -4 0 -12 -6 -16 -20 -12 -11 3
-20 1 -20 -5 0 -6 11 -8 25 -6 14 3 25 1 25 -3 0 -5 9 -9 20 -9 22 0 27 -16 8
-22 -9 -3 -8 -9 5 -22 9 -10 17 -22 17 -28 0 -5 6 -8 13 -5 6 2 11 11 9 21 -2
9 3 16 10 16 22 0 37 36 31 74 -5 35 -22 52 -19 20z"/>
<path d="M1305 1750 c-3 -5 -2 -10 4 -10 5 0 13 5 16 10 3 6 2 10 -4 10 -5 0
-13 -4 -16 -10z"/>
<path d="M1228 1644 c2 -13 7 -24 11 -24 11 0 7 39 -5 44 -7 3 -9 -5 -6 -20z"/>
<path d="M1980 1647 c0 -11 -8 -17 -21 -17 -20 0 -52 -23 -44 -32 2 -2 -6 -5
-18 -5 -12 -1 -23 -7 -25 -13 -2 -5 -9 -10 -14 -10 -6 0 -23 -13 -37 -29 -43
-48 -101 -62 -232 -56 -81 4 -115 2 -120 -6 -5 -9 -12 -8 -24 4 -16 17 -51 24
-41 9 4 -6 -10 -7 -59 -3 -5 1 -31 21 -57 45 -27 24 -48 40 -48 34 0 -5 -5 -6
-10 -3 -6 4 -7 11 -4 17 4 7 2 8 -5 4 -6 -4 -9 -16 -6 -27 4 -10 2 -19 -3 -19
-5 0 -3 -21 4 -47 42 -157 41 -151 27 -146 -27 11 14 -73 102 -207 73 -111
107 -178 94 -186 -5 -3 -5 -13 1 -24 10 -18 12 -18 39 10 15 17 32 30 38 30 5
0 19 13 31 29 12 17 77 73 144 127 152 119 173 140 152 148 -8 3 -12 11 -8 17
4 8 9 7 16 -2 8 -11 9 -11 5 1 -2 10 -18 16 -48 17 -33 1 -39 -1 -23 -7 32
-12 35 -24 14 -42 -20 -18 -32 -14 -23 8 6 15 -12 19 -22 5 -3 -5 -17 -6 -33
-2 -30 9 -52 4 -52 -10 0 -6 5 -7 12 -3 8 5 9 2 5 -10 -4 -10 -7 -21 -7 -24
-1 -4 -7 7 -14 23 -12 29 -13 29 -20 8 -4 -13 -14 -23 -22 -23 -8 0 -14 10
-14 23 0 15 3 18 9 9 6 -10 17 -4 44 23 23 23 43 35 52 31 9 -3 18 1 21 9 4
10 15 12 35 8 18 -3 29 -1 29 5 0 6 -7 9 -15 6 -8 -4 -15 -1 -15 6 0 6 -4 8
-10 5 -5 -3 -10 -2 -10 4 0 6 15 7 37 4 31 -5 35 -4 30 11 -5 11 1 20 17 27
13 6 29 22 35 35 6 13 15 24 21 24 5 0 10 7 10 15 0 9 6 12 16 8 12 -4 15 -2
12 8 -3 8 1 27 9 43 12 23 17 26 25 15 7 -10 8 -8 3 9 -4 13 -2 22 4 22 6 0
11 -7 11 -17 0 -21 8 -13 13 13 2 10 8 27 12 37 5 12 2 24 -9 35 -15 15 -16
15 -16 -1z m-84 -144 c-10 -10 -19 5 -10 18 6 11 8 11 12 0 2 -7 1 -15 -2 -18z
m-186 -348 c0 -2 -10 -10 -22 -16 -21 -11 -22 -11 -9 4 13 16 31 23 31 12z
m-75 -55 c3 -5 -1 -10 -9 -10 -9 0 -16 5 -16 10 0 6 4 10 9 10 6 0 13 -4 16
-10z m-172 -101 c25 3 31 0 17 -9 -13 -9 -13 -11 0 -20 8 -5 11 -10 5 -10 -24
0 -61 50 -47 64 3 4 9 0 12 -9 3 -9 9 -16 13 -16z"/>
<path d="M1401 1595 c1 -19 18 -51 18 -35 0 8 -4 22 -9 30 -5 8 -9 11 -9 5z"/>
<path d="M1434 1574 c4 -16 12 -33 18 -39 8 -7 9 -4 4 9 -4 11 -2 23 5 27 8 4
4 11 -11 19 -22 12 -22 11 -16 -16z"/>
<path d="M1370 1549 c0 -5 5 -7 10 -4 6 3 10 8 10 11 0 2 -4 4 -10 4 -5 0 -10
-5 -10 -11z"/>
<path d="M1395 1520 c3 -5 10 -10 16 -10 5 0 9 5 9 10 0 6 -7 10 -16 10 -8 0
-12 -4 -9 -10z"/>
<path d="M2230 1479 c0 -69 -54 -185 -178 -377 -24 -37 -62 -105 -84 -152 -22
-47 -56 -118 -75 -159 l-35 -73 -25 23 c-15 13 -43 40 -63 60 -28 29 -36 33
-36 19 0 -10 5 -16 10 -13 5 4 7 -1 3 -11 -5 -12 -3 -16 5 -14 16 6 45 -31 50
-62 2 -14 9 -24 16 -23 6 2 12 -6 12 -18 0 -16 -109 -281 -191 -466 -11 -23
-19 -46 -19 -51 0 -4 -8 -17 -18 -28 -15 -17 -42 -96 -42 -124 0 -7 339 -10
970 -10 l970 0 0 388 0 388 -26 41 c-26 38 -62 64 -114 79 -14 4 -64 29 -111
55 -82 47 -208 100 -349 149 -36 13 -99 39 -140 60 -41 20 -106 50 -145 65
-167 66 -242 118 -326 226 -23 30 -46 58 -50 64 -5 5 -9 -10 -9 -36z m1220
-659 c0 -5 -2 -10 -4 -10 -3 0 -8 5 -11 10 -3 6 -1 10 4 10 6 0 11 -4 11 -10z
m-95 -90 c3 -5 -1 -10 -9 -10 -9 0 -16 5 -16 10 0 6 4 10 9 10 6 0 13 -4 16
-10z m120 -40 c3 -5 1 -10 -4 -10 -6 0 -11 5 -11 10 0 6 2 10 4 10 3 0 8 -4
11 -10z m-235 -220 c0 -5 -4 -10 -10 -10 -5 0 -10 5 -10 10 0 6 5 10 10 10 6
0 10 -4 10 -10z m-10 -149 c0 -6 -4 -13 -10 -16 -5 -3 -10 1 -10 9 0 9 5 16
10 16 6 0 10 -4 10 -9z m140 -24 c0 -2 -9 -3 -20 -4 -12 -1 -20 4 -20 13 0 12
4 12 20 4 11 -6 20 -12 20 -13z"/>
<path d="M1880 1320 c-8 -5 -12 -12 -9 -15 4 -3 12 1 19 10 14 17 11 19 -10 5z"/>
<path d="M1201 1241 c-6 -10 -25 -24 -43 -32 -18 -7 -57 -28 -86 -46 -28 -19
-116 -65 -195 -103 -78 -38 -171 -87 -205 -109 -71 -44 -228 -101 -281 -101
-78 0 -158 -69 -197 -170 -9 -25 -35 -70 -56 -100 -33 -48 -38 -63 -38 -111 0
-35 -11 -83 -31 -139 -37 -102 -59 -195 -66 -272 l-5 -58 616 0 616 0 -2 75
c-1 40 0 77 3 80 13 12 35 -7 37 -32 3 -37 12 -42 12 -7 0 17 -9 65 -20 107
-11 43 -19 101 -18 130 1 28 -1 75 -5 102 -3 28 -10 212 -13 410 -8 418 -8
395 -11 395 -1 0 -7 -8 -12 -19z"/>
<path d="M1314 1062 c-21 -14 -31 -47 -38 -122 -4 -41 -11 -88 -16 -105 -4
-16 -11 -46 -14 -65 l-6 -35 19 23 c22 25 36 28 45 10 6 -13 1 22 -10 66 -4
17 1 30 17 45 12 11 23 33 25 48 1 16 6 39 11 53 6 14 8 40 6 58 -5 31 -17 39
-39 24z"/>
<path d="M1597 955 c3 -8 9 -12 14 -9 12 7 11 11 -5 17 -10 4 -13 1 -9 -8z"/>
<path d="M1685 860 c3 -5 8 -10 11 -10 2 0 4 5 4 10 0 6 -5 10 -11 10 -5 0 -7
-4 -4 -10z"/>
<path d="M1421 804 c-20 -15 -22 -21 -16 -68 4 -28 12 -62 17 -76 l10 -25 13
30 c7 17 14 53 15 80 3 85 2 87 -39 59z"/>
<path d="M1254 575 c-6 -14 -8 -66 -5 -109 3 -45 16 1 17 60 1 65 -2 76 -12
49z"/>
</g>
</svg>
