<svg width="341" height="99" viewBox="0 0 341 99" fill="none" xmlns="http://www.w3.org/2000/svg">
<g clip-path="url(#clip0_4369_8116)">
<rect width="341" height="99" rx="10" fill="#E5E5EA"/>
<g opacity="0.2">
<g opacity="0.2" filter="url(#filter0_d_4369_8116)">
<path d="M138.838 -133C179.108 -133 217.728 -117.003 246.203 -88.5278C274.678 -60.0526 290.676 -21.4321 290.676 18.8378C290.676 59.1076 274.678 97.7282 246.203 126.203C217.728 154.678 179.108 170.676 138.838 170.676H5.97972C0.955257 170.676 -3.86421 168.683 -7.42206 165.135C-10.9799 161.588 -12.9858 156.774 -13 151.749L-13 18.8378C-13 -21.4321 2.99715 -60.0526 31.4722 -88.5278C59.9474 -117.003 98.5679 -133 138.838 -133Z" fill="white"/>
</g>
<g style="mix-blend-mode:soft-light">
<path d="M202.161 -70.5657C242.431 -70.5657 281.052 -54.5685 309.527 -26.0934C338.002 2.38167 353.999 41.0022 353.999 81.2721V214.184C353.999 219.217 351.999 224.045 348.44 227.604C344.881 231.164 340.053 233.163 335.019 233.163H202.161C161.884 233.163 123.257 217.163 94.777 188.683C66.2968 160.203 50.2969 121.576 50.2969 81.2989C50.2969 41.0219 66.2968 2.39455 94.777 -26.0856C123.257 -54.5657 161.884 -70.5657 202.161 -70.5657Z" fill="white"/>
</g>
<g style="mix-blend-mode:exclusion" opacity="0.2">
<path d="M78.6795 169.925C62.4413 147.307 52.756 120.648 50.6892 92.8817C48.6223 65.1149 54.2539 37.3161 66.9645 12.543C79.6751 -12.23 98.9722 -33.0174 122.733 -47.5324C146.494 -62.0474 173.798 -69.7276 201.641 -69.7283H202.642C227.196 -69.7644 251.388 -63.8008 273.112 -52.3563C285.331 -29.2883 291.379 -3.45302 290.667 22.6416C289.956 48.7363 282.51 74.2038 269.053 96.5719C255.595 118.94 236.583 137.449 213.862 150.301C191.141 163.154 165.483 169.914 139.379 169.925H78.6795Z" fill="#E5E5EA"/>
</g>
</g>
</g>
<defs>
<filter id="filter0_d_4369_8116" x="-29" y="-137" width="335.676" height="335.676" filterUnits="userSpaceOnUse" color-interpolation-filters="sRGB">
<feFlood flood-opacity="0" result="BackgroundImageFix"/>
<feColorMatrix in="SourceAlpha" type="matrix" values="0 0 0 0 0 0 0 0 0 0 0 0 0 0 0 0 0 0 127 0" result="hardAlpha"/>
<feOffset dy="12"/>
<feGaussianBlur stdDeviation="8"/>
<feColorMatrix type="matrix" values="0 0 0 0 0.137255 0 0 0 0 0.0431373 0 0 0 0 0.627451 0 0 0 0.239 0"/>
<feBlend mode="normal" in2="BackgroundImageFix" result="effect1_dropShadow_4369_8116"/>
<feBlend mode="normal" in="SourceGraphic" in2="effect1_dropShadow_4369_8116" result="shape"/>
</filter>
<clipPath id="clip0_4369_8116">
<rect width="341" height="99" rx="10" fill="white"/>
</clipPath>
</defs>
</svg>
