<?xml version="1.0" standalone="no"?>
<!DOCTYPE svg PUBLIC "-//W3C//DTD SVG 20010904//EN"
 "http://www.w3.org/TR/2001/REC-SVG-20010904/DTD/svg10.dtd">
<svg version="1.0" xmlns="http://www.w3.org/2000/svg"
 width="170.000000pt" height="170.000000pt" viewBox="0 0 170.000000 170.000000"
 preserveAspectRatio="xMidYMid meet">
<metadata>
Created by potrace 1.14, written by Peter Selinger 2001-2017
</metadata>
<g transform="translate(0.000000,170.000000) scale(0.100000,-0.100000)"
fill="#000000" stroke="none">
<path d="M441 1620 c-72 -26 -94 -46 -78 -71 6 -10 16 -19 22 -19 17 0 120
-54 128 -67 4 -7 17 -13 27 -13 10 0 24 -8 29 -17 6 -10 11 -15 11 -11 0 4 22
-6 49 -22 26 -17 53 -30 60 -30 6 0 11 -4 11 -10 0 -5 7 -10 15 -10 8 0 15 -4
15 -10 0 -5 7 -10 15 -10 8 0 15 -4 15 -10 0 -5 7 -7 15 -4 8 4 15 2 15 -3 0
-5 20 -20 45 -32 24 -12 47 -26 50 -32 4 -5 10 -7 15 -4 5 3 12 -1 17 -9 4 -8
10 -14 13 -13 3 1 23 -9 45 -22 46 -29 113 -67 135 -77 8 -4 26 -16 39 -26 13
-10 27 -15 32 -12 5 3 9 1 9 -5 0 -11 19 -9 38 3 9 5 10 11 3 20 -6 7 -8 16
-4 19 3 4 1 7 -5 7 -7 0 -12 7 -12 15 0 9 -7 18 -16 22 -8 3 -13 12 -10 19 3
8 2 14 -2 14 -7 0 -21 22 -44 73 -7 15 -16 27 -20 27 -4 0 -8 5 -8 11 0 6 -7
17 -15 26 -8 8 -13 19 -10 24 4 5 1 9 -4 9 -6 0 -11 7 -11 15 0 8 -4 15 -10
15 -5 0 -10 6 -10 14 0 25 -127 140 -187 170 -32 16 -67 34 -78 40 -11 6 -81
12 -155 13 -112 2 -144 -1 -189 -17z"/>
<path d="M234 1466 c-44 -31 -69 -59 -85 -94 -8 -18 -17 -32 -20 -32 -3 0 -6
-6 -7 -12 0 -7 -8 -33 -18 -58 -13 -34 -17 -73 -16 -155 1 -110 2 -122 17
-160 22 -59 31 -75 41 -79 12 -5 64 64 64 83 0 5 6 16 13 23 6 7 23 33 36 58
13 25 31 53 39 63 8 9 12 17 8 17 -4 0 7 20 23 44 17 24 27 46 24 50 -4 3 -1
6 5 6 7 0 12 7 12 15 0 9 7 18 15 21 8 4 13 10 10 14 -3 5 2 16 11 24 8 9 13
16 10 16 -7 0 21 35 56 70 27 27 28 27 9 48 -10 12 -21 19 -25 15 -3 -3 -6 -1
-6 6 0 7 -4 9 -10 6 -5 -3 -10 -1 -10 5 0 6 -4 8 -10 5 -5 -3 -10 -1 -10 5 0
6 -4 9 -9 5 -5 -3 -13 -1 -16 5 -12 19 -118 9 -151 -14z"/>
<path d="M1119 1414 c-8 -10 -8 -14 0 -14 6 0 11 -4 11 -9 0 -5 27 -55 60
-110 33 -56 60 -106 60 -111 0 -6 3 -10 8 -10 4 0 13 -15 21 -32 8 -18 25 -47
38 -64 12 -17 20 -34 16 -37 -3 -4 -1 -7 5 -7 7 0 12 -6 12 -13 0 -7 6 -19 13
-25 6 -7 12 -16 13 -20 0 -4 6 -20 13 -37 7 -16 14 -38 17 -49 5 -29 11 -30
52 -12 52 23 105 73 124 116 18 39 17 104 -1 138 -6 12 -9 22 -6 22 4 0 0 7
-7 15 -28 31 -38 45 -39 52 0 11 -85 103 -94 103 -4 0 -15 8 -24 18 -19 20
-112 66 -156 78 -84 21 -123 23 -136 8z"/>
<path d="M368 1122 c-9 -2 -19 -14 -22 -28 -4 -13 -11 -24 -16 -24 -6 0 -10
-4 -10 -9 0 -9 -99 -182 -109 -191 -3 -3 -7 -12 -9 -20 -2 -8 -8 -16 -13 -18
-5 -2 -9 -9 -9 -15 0 -7 -6 -24 -14 -38 -12 -23 -20 -48 -34 -104 -11 -41 -5
-219 7 -223 6 -2 9 -7 6 -12 -7 -12 27 -102 48 -124 9 -11 17 -25 17 -30 0
-16 100 -118 140 -143 26 -16 38 -18 46 -10 11 13 11 377 0 396 -4 6 -4 11 1
11 10 0 9 132 -1 148 -4 7 -4 12 1 12 11 0 8 393 -3 411 -5 8 -16 13 -26 11z"/>
<path d="M1549 866 c-24 -19 -45 -33 -47 -31 -3 2 -11 -3 -19 -11 -8 -8 -19
-12 -24 -9 -5 4 -9 1 -9 -4 0 -6 -15 -18 -32 -26 -49 -23 -93 -49 -96 -58 -2
-4 -8 -5 -13 -1 -5 3 -9 1 -9 -5 0 -9 -40 -27 -49 -22 -2 2 -8 -4 -13 -13 -5
-9 -15 -16 -22 -16 -8 0 -19 -7 -26 -15 -7 -8 -16 -12 -21 -9 -5 3 -9 1 -9 -4
0 -5 -8 -12 -17 -16 -10 -3 -25 -10 -33 -15 -53 -35 -216 -125 -222 -123 -5 1
-8 -3 -8 -9 0 -5 -4 -7 -10 -4 -5 3 -10 3 -10 -2 0 -4 -23 -21 -50 -38 -28
-16 -50 -32 -50 -35 1 -25 25 -29 193 -32 97 -2 177 -1 177 3 0 3 12 5 28 5
41 0 126 16 132 25 3 5 15 10 25 12 29 5 75 29 75 38 0 4 8 10 18 13 42 14
181 173 165 190 -4 3 -2 6 4 6 8 0 30 57 39 103 1 4 2 8 4 10 4 6 11 45 11 74
2 63 -19 68 -82 19z"/>
<path d="M452 308 c-4 -18 -5 -49 -2 -69 4 -19 6 -45 5 -57 -1 -11 3 -18 8
-15 5 3 7 0 5 -8 -7 -20 61 -84 102 -97 42 -13 190 -13 208 1 6 5 12 7 12 3 0
-3 16 0 35 8 19 8 35 12 35 8 0 -4 4 -2 8 3 4 6 29 21 57 35 58 29 175 143
175 171 0 18 -11 19 -285 20 -157 1 -288 2 -292 4 -10 2 -46 17 -55 22 -4 2
-11 -11 -16 -29z"/>
</g>
</svg>
