<svg width="65" height="65" viewBox="0 0 65 65" fill="none" xmlns="http://www.w3.org/2000/svg">
<path d="M60.3308 26.2184C59.0181 20.0421 55.537 14.4206 50.5275 10.3898C45.4045 6.29093 39.0382 4.05926 32.4773 4.0625C24.7433 4.0625 17.5197 7.04209 12.1191 12.4528C6.90004 17.6884 4.03978 24.601 4.06264 31.9122C4.06281 37.2725 5.6365 42.5149 8.58852 46.9892L9.14076 47.7572L6.09389 60.9375L20.6681 57.3117C20.6681 57.3117 20.9601 57.4095 21.1759 57.492C21.3917 57.5745 23.2491 58.2867 25.2194 58.8377C26.8571 59.2947 30.2645 59.9803 32.9343 59.9803C40.5071 59.9803 47.5784 57.0477 52.8444 51.7207C58.0634 46.4356 60.9376 39.4088 60.9376 31.9274C60.938 30.0083 60.7346 28.0945 60.3308 26.2184ZM20.3126 36.5625C19.5091 36.5625 18.7237 36.3242 18.0556 35.8778C17.3876 35.4315 16.8669 34.797 16.5594 34.0547C16.2519 33.3123 16.1714 32.4955 16.3282 31.7074C16.4849 30.9194 16.8719 30.1955 17.44 29.6274C18.0082 29.0592 18.732 28.6723 19.5201 28.5156C20.3081 28.3588 21.125 28.4393 21.8673 28.7467C22.6096 29.0542 23.2441 29.5749 23.6905 30.243C24.1369 30.9111 24.3751 31.6965 24.3751 32.5C24.3751 33.5774 23.9471 34.6108 23.1853 35.3726C22.4234 36.1345 21.3901 36.5625 20.3126 36.5625ZM32.5001 36.5625C31.6966 36.5625 30.9112 36.3242 30.2431 35.8778C29.5751 35.4315 29.0544 34.797 28.7469 34.0547C28.4394 33.3123 28.3589 32.4955 28.5157 31.7074C28.6724 30.9194 29.0594 30.1955 29.6275 29.6274C30.1957 29.0592 30.9195 28.6723 31.7076 28.5156C32.4956 28.3588 33.3125 28.4393 34.0548 28.7467C34.7971 29.0542 35.4316 29.5749 35.878 30.243C36.3244 30.9111 36.5626 31.6965 36.5626 32.5C36.5626 33.5774 36.1346 34.6108 35.3728 35.3726C34.6109 36.1345 33.5776 36.5625 32.5001 36.5625ZM44.6876 36.5625C43.8841 36.5625 43.0987 36.3242 42.4306 35.8778C41.7626 35.4315 41.2419 34.797 40.9344 34.0547C40.6269 33.3123 40.5464 32.4955 40.7032 31.7074C40.8599 30.9194 41.2469 30.1955 41.815 29.6274C42.3832 29.0592 43.107 28.6723 43.8951 28.5156C44.6831 28.3588 45.5 28.4393 46.2423 28.7467C46.9846 29.0542 47.6191 29.5749 48.0655 30.243C48.5119 30.9111 48.7501 31.6965 48.7501 32.5C48.7501 33.5774 48.3221 34.6108 47.5603 35.3726C46.7984 36.1345 45.7651 36.5625 44.6876 36.5625Z" fill="url(#paint0_linear_1749_16544)"/>
<defs>
<linearGradient id="paint0_linear_1749_16544" x1="32.5001" y1="4.0625" x2="32.5001" y2="60.9375" gradientUnits="userSpaceOnUse">
<stop offset="0.0613214" stop-color="#1EAAF1"/>
<stop offset="0.905112" stop-color="#3C2CD1"/>
</linearGradient>
</defs>
</svg>
