<svg width="17" height="18" viewBox="0 0 17 18" fill="none" xmlns="http://www.w3.org/2000/svg">
<path d="M8.50017 0.617188C9.19215 0.617142 9.85793 0.881894 10.3609 1.35713C10.8639 1.83237 11.166 2.48207 11.2051 3.17294L11.2093 3.32632H15.5856C15.744 3.32637 15.8965 3.38654 16.0122 3.49468C16.128 3.60282 16.1983 3.75086 16.2091 3.9089C16.2199 4.06693 16.1703 4.22317 16.0704 4.34604C15.9704 4.46892 15.8275 4.54927 15.6706 4.57086L15.5856 4.57669H14.9221L13.8551 15.4299C13.8016 15.971 13.5576 16.4755 13.1665 16.8532C12.7755 17.231 12.2629 17.4575 11.7203 17.4922L11.5736 17.4972H5.42676C4.88281 17.4972 4.3566 17.3037 3.94216 16.9514C3.52771 16.5991 3.25205 16.111 3.16442 15.5741L3.14525 15.4291L2.07743 4.57669H1.41474C1.26366 4.57669 1.1177 4.52197 1.00384 4.42268C0.889981 4.32338 0.815932 4.18621 0.795386 4.03653L0.789551 3.95151C0.789557 3.80043 0.844269 3.65447 0.943569 3.54061C1.04287 3.42675 1.18004 3.3527 1.32971 3.33216L1.41474 3.32632H5.79103C5.79103 2.60782 6.07646 1.91874 6.58452 1.41067C7.09258 0.902613 7.78166 0.617188 8.50017 0.617188V0.617188ZM13.6659 4.57669H3.33364L4.38978 15.3065C4.41317 15.546 4.51867 15.7699 4.68839 15.9404C4.85811 16.1109 5.08158 16.2174 5.32089 16.2418L5.42676 16.2468H11.5736C12.0737 16.2468 12.498 15.8925 12.5947 15.4116L12.6114 15.3065L13.665 4.57669H13.6659ZM9.95893 6.86904C10.11 6.86905 10.256 6.92376 10.3698 7.02306C10.4837 7.12236 10.5577 7.25953 10.5783 7.4092L10.5841 7.49422V13.3293C10.5841 13.4877 10.5239 13.6402 10.4158 13.7559C10.3076 13.8716 10.1596 13.942 10.0015 13.9528C9.84351 13.9636 9.68728 13.914 9.5644 13.8141C9.44153 13.7141 9.36117 13.5712 9.33958 13.4143L9.33375 13.3293V7.49422C9.33375 7.32841 9.39962 7.1694 9.51686 7.05215C9.63411 6.93491 9.79312 6.86904 9.95893 6.86904ZM7.0414 6.86904C7.19248 6.86905 7.33844 6.92376 7.4523 7.02306C7.56616 7.12236 7.64021 7.25953 7.66075 7.4092L7.66659 7.49422V13.3293C7.66654 13.4877 7.60637 13.6402 7.49823 13.7559C7.39009 13.8716 7.24205 13.942 7.08402 13.9528C6.92598 13.9636 6.76975 13.914 6.64687 13.8141C6.52399 13.7141 6.44364 13.5712 6.42205 13.4143L6.41622 13.3293V7.49422C6.41622 7.32841 6.48209 7.1694 6.59933 7.05215C6.71658 6.93491 6.87559 6.86904 7.0414 6.86904ZM8.50017 1.86756C8.13407 1.86757 7.78136 2.00524 7.51205 2.25324C7.24274 2.50124 7.07653 2.84143 7.0464 3.20629L7.0414 3.32632H9.95893C9.95893 2.93943 9.80524 2.56839 9.53167 2.29482C9.2581 2.02125 8.88706 1.86756 8.50017 1.86756Z" fill="#3C2CD1"/>
</svg>
