<svg width="19" height="18" viewBox="0 0 19 18" fill="none" xmlns="http://www.w3.org/2000/svg">
<g clipPath="url(#clip0_1689_13013)">
<path d="M8.28955 0.826172H6.62288C2.45622 0.826172 0.789551 2.49284 0.789551 6.65951V11.6595C0.789551 15.8262 2.45622 17.4928 6.62288 17.4928H11.6229C15.7896 17.4928 17.4562 15.8262 17.4562 11.6595V9.99284" stroke="#3C2CD1" strokeLinecap="round" strokeLinejoin="round"/>
<path d="M12.4896 1.67655L5.92295 8.24321C5.67295 8.49321 5.42295 8.98488 5.37295 9.34321L5.01461 11.8515C4.88128 12.7599 5.52295 13.3932 6.43128 13.2682L8.93961 12.9099C9.28961 12.8599 9.78128 12.6099 10.0396 12.3599L16.6063 5.79321C17.7396 4.65988 18.2729 3.34321 16.6063 1.67655C14.9396 0.00987732 13.6229 0.543211 12.4896 1.67655Z" stroke="#3C2CD1" stroke-miterlimit="10" strokeLinecap="round" strokeLinejoin="round"/>
<path d="M11.5479 2.61719C12.1062 4.60885 13.6645 6.16719 15.6645 6.73385" stroke="#3C2CD1" stroke-miterlimit="10" strokeLinecap="round" strokeLinejoin="round"/>
</g>
<defs>
<clipPath id="clip0_1689_13013">
<rect width="19" height="18" fill="white"/>
</clipPath>
</defs>
</svg>
