<svg width="24" height="24" viewBox="0 0 24 24" fill="none" xmlns="http://www.w3.org/2000/svg">
<path d="M15.0006 22.7488H9.00063C7.68063 22.7488 6.58063 22.6189 5.65063 22.3389C5.31063 22.2389 5.09063 21.9088 5.11063 21.5588C5.36063 18.5688 8.39063 16.2188 12.0006 16.2188C15.6106 16.2188 18.6306 18.5588 18.8906 21.5588C18.9206 21.9188 18.7006 22.2389 18.3506 22.3389C17.4206 22.6189 16.3206 22.7488 15.0006 22.7488ZM6.72063 21.0588C7.38063 21.1888 8.13063 21.2488 9.00063 21.2488H15.0006C15.8706 21.2488 16.6206 21.1888 17.2806 21.0588C16.7506 19.1388 14.5606 17.7188 12.0006 17.7188C9.44063 17.7188 7.25063 19.1388 6.72063 21.0588Z" fill="white"/>
<path d="M15 2H9C4 2 2 4 2 9V15C2 18.78 3.14 20.85 5.86 21.62C6.08 19.02 8.75 16.97 12 16.97C15.25 16.97 17.92 19.02 18.14 21.62C20.86 20.85 22 18.78 22 15V9C22 4 20 2 15 2ZM12 14.17C10.02 14.17 8.42 12.56 8.42 10.58C8.42 8.60002 10.02 7 12 7C13.98 7 15.58 8.60002 15.58 10.58C15.58 12.56 13.98 14.17 12 14.17Z" stroke="white" stroke-width="1.5" stroke-linecap="round" stroke-linejoin="round"/>
<path d="M11.9979 14.92C9.60797 14.92 7.66797 12.97 7.66797 10.58C7.66797 8.19002 9.60797 6.25 11.9979 6.25C14.3879 6.25 16.3279 8.19002 16.3279 10.58C16.3279 12.97 14.3879 14.92 11.9979 14.92ZM11.9979 7.75C10.4379 7.75 9.16797 9.02002 9.16797 10.58C9.16797 12.15 10.4379 13.42 11.9979 13.42C13.5579 13.42 14.8279 12.15 14.8279 10.58C14.8279 9.02002 13.5579 7.75 11.9979 7.75Z" fill="white"/>
</svg>
